<?xml version="1.0" encoding="utf-8"?>
<!-- Generator: Adobe Illustrator 18.0.0, SVG Export Plug-In . SVG Version: 6.00 Build 0)  -->
<!DOCTYPE svg PUBLIC "-//W3C//DTD SVG 1.1//EN" "http://www.w3.org/Graphics/SVG/1.1/DTD/svg11.dtd">
<svg version="1.1" id="Calque_1" xmlns="http://www.w3.org/2000/svg" xmlns:xlink="http://www.w3.org/1999/xlink" x="0px" y="0px"
	 viewBox="0 0 1376.1 2898.9" enable-background="new 0 0 1376.1 2898.9" xml:space="preserve">
<rect x="21.1" y="2.9" fill="#C20E1A" width="90" height="2855.9"/>
<rect x="111.1" y="2" fill="#DC911B" width="25" height="2857"/>
<rect x="136.1" y="3.4" fill="#C20E1A" width="90" height="2855.9"/>
<rect x="226.1" y="2.4" fill="#DC911B" width="25" height="2857"/>
<rect x="251.1" y="3.8" fill="#C20E1A" width="90" height="2855.9"/>
<rect x="341.1" y="2.8" fill="#DC911B" width="25" height="2857"/>
<rect x="366.1" y="4.2" fill="#C20E1A" width="90" height="2855.9"/>
<rect x="456.1" y="3.2" fill="#DC911B" width="25" height="2857"/>
<rect x="481.1" y="4.6" fill="#C20E1A" width="90" height="2855.9"/>
<rect x="571.1" y="3.6" fill="#DC911B" width="25" height="2857"/>
<rect x="596.1" y="5.1" fill="#C20E1A" width="90" height="2855.9"/>
<rect x="686.1" y="4.1" fill="#DC911B" width="25" height="2857"/>
<rect x="711.1" y="5.5" fill="#C20E1A" width="90" height="2855.9"/>
<rect x="801.1" y="4.5" fill="#DC911B" width="25" height="2857"/>
<rect x="826.1" y="4.6" fill="#C20E1A" width="90" height="2855.9"/>
<rect x="916.1" y="3.6" fill="#DC911B" width="25" height="2857"/>
<rect x="941.1" y="5.9" fill="#C20E1A" width="90" height="2855.9"/>
<rect x="1031.1" y="4.9" fill="#DC911B" width="25" height="2857"/>
<rect x="1056.1" y="6.3" fill="#C20E1A" width="90" height="2855.9"/>
<rect x="1146.1" y="5.3" fill="#DC911B" width="25" height="2857"/>
<rect x="1171.1" y="6.7" fill="#C20E1A" width="90" height="2855.9"/>
<rect x="1261.1" y="5.8" fill="#DC911B" width="25" height="2857"/>
<rect x="1286.1" y="7.2" fill="#C20E1A" width="90" height="2855.9"/>
<rect x="0" y="0" fill="#DC911B" width="25" height="2857"/>
</svg>
